# vtk DataFile Version 3.0
append attributes test: structured grid 11x11x3
ASCII
DATASET STRUCTURED_GRID
DIMENSIONS 11 11 3
POINTS 363 float
-1 -1 0
-0.8 -1 0
-0.6 -1 0
-0.4 -1 0
-0.2 -1 0
0 -1 0
0.2 -1 0
0.4 -1 0
0.6 -1 0
0.8 -1 0
1 -1 0
-1 -0.8 0
-0.8 -0.8 0
-0.6 -0.8 0
-0.4 -0.8 0
-0.2 -0.8 0
0 -0.8 0
0.2 -0.8 0
0.4 -0.8 0
0.6 -0.8 0
0.8 -0.8 0
1 -0.8 0
-1 -0.6 0
-0.8 -0.6 0
-0.6 -0.6 0
-0.4 -0.6 0
-0.2 -0.6 0
0 -0.6 0
0.2 -0.6 0
0.4 -0.6 0
0.6 -0.6 0
0.8 -0.6 0
1 -0.6 0
-1 -0.4 0
-0.8 -0.4 0
-0.6 -0.4 0
-0.4 -0.4 0
-0.2 -0.4 0
0 -0.4 0
0.2 -0.4 0
0.4 -0.4 0
0.6 -0.4 0
0.8 -0.4 0
1 -0.4 0
-1 -0.2 0
-0.8 -0.2 0
-0.6 -0.2 0
-0.4 -0.2 0
-0.2 -0.2 0
0 -0.2 0
0.2 -0.2 0
0.4 -0.2 0
0.6 -0.2 0
0.8 -0.2 0
1 -0.2 0
-1 0 0
-0.8 0 0
-0.6 0 0
-0.4 0 0
-0.2 0 0
0 0 0
0.2 0 0
0.4 0 0
0.6 0 0
0.8 0 0
1 0 0
-1 0.2 0
-0.8 0.2 0
-0.6 0.2 0
-0.4 0.2 0
-0.2 0.2 0
0 0.2 0
0.2 0.2 0
0.4 0.2 0
0.6 0.2 0
0.8 0.2 0
1 0.2 0
-1 0.4 0
-0.8 0.4 0
-0.6 0.4 0
-0.4 0.4 0
-0.2 0.4 0
0 0.4 0
0.2 0.4 0
0.4 0.4 0
0.6 0.4 0
0.8 0.4 0
1 0.4 0
-1 0.6 0
-0.8 0.6 0
-0.6 0.6 0
-0.4 0.6 0
-0.2 0.6 0
0 0.6 0
0.2 0.6 0
0.4 0.6 0
0.6 0.6 0
0.8 0.6 0
1 0.6 0
-1 0.8 0
-0.8 0.8 0
-0.6 0.8 0
-0.4 0.8 0
-0.2 0.8 0
0 0.8 0
0.2 0.8 0
0.4 0.8 0
0.6 0.8 0
0.8 0.8 0
1 0.8 0
-1 1 0
-0.8 1 0
-0.6 1 0
-0.4 1 0
-0.2 1 0
0 1 0
0.2 1 0
0.4 1 0
0.6 1 0
0.8 1 0
1 1 0
-1 -1 0.5
-0.8 -1 0.5
-0.6 -1 0.5
-0.4 -1 0.5
-0.2 -1 0.5
0 -1 0.5
0.2 -1 0.5
0.4 -1 0.5
0.6 -1 0.5
0.8 -1 0.5
1 -1 0.5
-1 -0.8 0.5
-0.8 -0.8 0.5
-0.6 -0.8 0.5
-0.4 -0.8 0.5
-0.2 -0.8 0.5
0 -0.8 0.5
0.2 -0.8 0.5
0.4 -0.8 0.5
0.6 -0.8 0.5
0.8 -0.8 0.5
1 -0.8 0.5
-1 -0.6 0.5
-0.8 -0.6 0.5
-0.6 -0.6 0.5
-0.4 -0.6 0.5
-0.2 -0.6 0.5
0 -0.6 0.5
0.2 -0.6 0.5
0.4 -0.6 0.5
0.6 -0.6 0.5
0.8 -0.6 0.5
1 -0.6 0.5
-1 -0.4 0.5
-0.8 -0.4 0.5
-0.6 -0.4 0.5
-0.4 -0.4 0.5
-0.2 -0.4 0.5
0 -0.4 0.5
0.2 -0.4 0.5
0.4 -0.4 0.5
0.6 -0.4 0.5
0.8 -0.4 0.5
1 -0.4 0.5
-1 -0.2 0.5
-0.8 -0.2 0.5
-0.6 -0.2 0.5
-0.4 -0.2 0.5
-0.2 -0.2 0.5
0 -0.2 0.5
0.2 -0.2 0.5
0.4 -0.2 0.5
0.6 -0.2 0.5
0.8 -0.2 0.5
1 -0.2 0.5
-1 0 0.5
-0.8 0 0.5
-0.6 0 0.5
-0.4 0 0.5
-0.2 0 0.5
0 0 0.5
0.2 0 0.5
0.4 0 0.5
0.6 0 0.5
0.8 0 0.5
1 0 0.5
-1 0.2 0.5
-0.8 0.2 0.5
-0.6 0.2 0.5
-0.4 0.2 0.5
-0.2 0.2 0.5
0 0.2 0.5
0.2 0.2 0.5
0.4 0.2 0.5
0.6 0.2 0.5
0.8 0.2 0.5
1 0.2 0.5
-1 0.4 0.5
-0.8 0.4 0.5
-0.6 0.4 0.5
-0.4 0.4 0.5
-0.2 0.4 0.5
0 0.4 0.5
0.2 0.4 0.5
0.4 0.4 0.5
0.6 0.4 0.5
0.8 0.4 0.5
1 0.4 0.5
-1 0.6 0.5
-0.8 0.6 0.5
-0.6 0.6 0.5
-0.4 0.6 0.5
-0.2 0.6 0.5
0 0.6 0.5
0.2 0.6 0.5
0.4 0.6 0.5
0.6 0.6 0.5
0.8 0.6 0.5
1 0.6 0.5
-1 0.8 0.5
-0.8 0.8 0.5
-0.6 0.8 0.5
-0.4 0.8 0.5
-0.2 0.8 0.5
0 0.8 0.5
0.2 0.8 0.5
0.4 0.8 0.5
0.6 0.8 0.5
0.8 0.8 0.5
1 0.8 0.5
-1 1 0.5
-0.8 1 0.5
-0.6 1 0.5
-0.4 1 0.5
-0.2 1 0.5
0 1 0.5
0.2 1 0.5
0.4 1 0.5
0.6 1 0.5
0.8 1 0.5
1 1 0.5
-1 -1 1
-0.8 -1 1
-0.6 -1 1
-0.4 -1 1
-0.2 -1 1
0 -1 1
0.2 -1 1
0.4 -1 1
0.6 -1 1
0.8 -1 1
1 -1 1
-1 -0.8 1
-0.8 -0.8 1
-0.6 -0.8 1
-0.4 -0.8 1
-0.2 -0.8 1
0 -0.8 1
0.2 -0.8 1
0.4 -0.8 1
0.6 -0.8 1
0.8 -0.8 1
1 -0.8 1
-1 -0.6 1
-0.8 -0.6 1
-0.6 -0.6 1
-0.4 -0.6 1
-0.2 -0.6 1
0 -0.6 1
0.2 -0.6 1
0.4 -0.6 1
0.6 -0.6 1
0.8 -0.6 1
1 -0.6 1
-1 -0.4 1
-0.8 -0.4 1
-0.6 -0.4 1
-0.4 -0.4 1
-0.2 -0.4 1
0 -0.4 1
0.2 -0.4 1
0.4 -0.4 1
0.6 -0.4 1
0.8 -0.4 1
1 -0.4 1
-1 -0.2 1
-0.8 -0.2 1
-0.6 -0.2 1
-0.4 -0.2 1
-0.2 -0.2 1
0 -0.2 1
0.2 -0.2 1
0.4 -0.2 1
0.6 -0.2 1
0.8 -0.2 1
1 -0.2 1
-1 0 1
-0.8 0 1
-0.6 0 1
-0.4 0 1
-0.2 0 1
0 0 1
0.2 0 1
0.4 0 1
0.6 0 1
0.8 0 1
1 0 1
-1 0.2 1
-0.8 0.2 1
-0.6 0.2 1
-0.4 0.2 1
-0.2 0.2 1
0 0.2 1
0.2 0.2 1
0.4 0.2 1
0.6 0.2 1
0.8 0.2 1
1 0.2 1
-1 0.4 1
-0.8 0.4 1
-0.6 0.4 1
-0.4 0.4 1
-0.2 0.4 1
0 0.4 1
0.2 0.4 1
0.4 0.4 1
0.6 0.4 1
0.8 0.4 1
1 0.4 1
-1 0.6 1
-0.8 0.6 1
-0.6 0.6 1
-0.4 0.6 1
-0.2 0.6 1
0 0.6 1
0.2 0.6 1
0.4 0.6 1
0.6 0.6 1
0.8 0.6 1
1 0.6 1
-1 0.8 1
-0.8 0.8 1
-0.6 0.8 1
-0.4 0.8 1
-0.2 0.8 1
0 0.8 1
0.2 0.8 1
0.4 0.8 1
0.6 0.8 1
0.8 0.8 1
1 0.8 1
-1 1 1
-0.8 1 1
-0.6 1 1
-0.4 1 1
-0.2 1 1
0 1 1
0.2 1 1
0.4 1 1
0.6 1 1
0.8 1 1
1 1 1
POINT_DATA 363
SCALARS temperatureB float 1
LOOKUP_TABLE default
0
0.2
0.4
0.6
0.8
1
1.2
1.4
1.6
1.8
2
-0.2
0
0.2
0.4
0.6
0.8
1
1.2
1.4
1.6
1.8
-0.4
-0.2
0
0.2
0.4
0.6
0.8
1
1.2
1.4
1.6
-0.6
-0.4
-0.2
0
0.2
0.4
0.6
0.8
1
1.2
1.4
-0.8
-0.6
-0.4
-0.2
0
0.2
0.4
0.6
0.8
1
1.2
-1
-0.8
-0.6
-0.4
-0.2
0
0.2
0.4
0.6
0.8
1
-1.2
-1
-0.8
-0.6
-0.4
-0.2
0
0.2
0.4
0.6
0.8
-1.4
-1.2
-1
-0.8
-0.6
-0.4
-0.2
0
0.2
0.4
0.6
-1.6
-1.4
-1.2
-1
-0.8
-0.6
-0.4
-0.2
0
0.2
0.4
-1.8
-1.6
-1.4
-1.2
-1
-0.8
-0.6
-0.4
-0.2
0
0.2
-2
-1.8
-1.6
-1.4
-1.2
-1
-0.8
-0.6
-0.4
-0.2
0
0
0.2
0.4
0.6
0.8
1
1.2
1.4
1.6
1.8
2
-0.2
0
0.2
0.4
0.6
0.8
1
1.2
1.4
1.6
1.8
-0.4
-0.2
0
0.2
0.4
0.6
0.8
1
1.2
1.4
1.6
-0.6
-0.4
-0.2
0
0.2
0.4
0.6
0.8
1
1.2
1.4
-0.8
-0.6
-0.4
-0.2
0
0.2
0.4
0.6
0.8
1
1.2
-1
-0.8
-0.6
-0.4
-0.2
0
0.2
0.4
0.6
0.8
1
-1.2
-1
-0.8
-0.6
-0.4
-0.2
0
0.2
0.4
0.6
0.8
-1.4
-1.2
-1
-0.8
-0.6
-0.4
-0.2
0
0.2
0.4
0.6
-1.6
-1.4
-1.2
-1
-0.8
-0.6
-0.4
-0.2
0
0.2
0.4
-1.8
-1.6
-1.4
-1.2
-1
-0.8
-0.6
-0.4
-0.2
0
0.2
-2
-1.8
-1.6
-1.4
-1.2
-1
-0.8
-0.6
-0.4
-0.2
0
0
0.2
0.4
0.6
0.8
1
1.2
1.4
1.6
1.8
2
-0.2
0
0.2
0.4
0.6
0.8
1
1.2
1.4
1.6
1.8
-0.4
-0.2
0
0.2
0.4
0.6
0.8
1
1.2
1.4
1.6
-0.6
-0.4
-0.2
0
0.2
0.4
0.6
0.8
1
1.2
1.4
-0.8
-0.6
-0.4
-0.2
0
0.2
0.4
0.6
0.8
1
1.2
-1
-0.8
-0.6
-0.4
-0.2
0
0.2
0.4
0.6
0.8
1
-1.2
-1
-0.8
-0.6
-0.4
-0.2
0
0.2
0.4
0.6
0.8
-1.4
-1.2
-1
-0.8
-0.6
-0.4
-0.2
0
0.2
0.4
0.6
-1.6
-1.4
-1.2
-1
-0.8
-0.6
-0.4
-0.2
0
0.2
0.4
-1.8
-1.6
-1.4
-1.2
-1
-0.8
-0.6
-0.4
-0.2
0
0.2
-2
-1.8
-1.6
-1.4
-1.2
-1
-0.8
-0.6
-0.4
-0.2
0
SCALARS shared float 1
LOOKUP_TABLE default
2
2
2
2
2
2
2
2
2
2
2
2
2
2
2
2
2
2
2
2
2
2
2
2
2
2
2
2
2
2
2
2
2
2
2
2
2
2
2
2
2
2
2
2
2
2
2
2
2
2
2
2
2
2
2
2
2
2
2
2
2
2
2
2
2
2
2
2
2
2
2
2
2
2
2
2
2
2
2
2
2
2
2
2
2
2
2
2
2
2
2
2
2
2
2
2
2
2
2
2
2
2
2
2
2
2
2
2
2
2
2
2
2
2
2
2
2
2
2
2
2
2
2
2
2
2
2
2
2
2
2
2
2
2
2
2
2
2
2
2
2
2
2
2
2
2
2
2
2
2
2
2
2
2
2
2
2
2
2
2
2
2
2
2
2
2
2
2
2
2
2
2
2
2
2
2
2
2
2
2
2
2
2
2
2
2
2
2
2
2
2
2
2
2
2
2
2
2
2
2
2
2
2
2
2
2
2
2
2
2
2
2
2
2
2
2
2
2
2
2
2
2
2
2
2
2
2
2
2
2
2
2
2
2
2
2
2
2
2
2
2
2
2
2
2
2
2
2
2
2
2
2
2
2
2
2
2
2
2
2
2
2
2
2
2
2
2
2
2
2
2
2
2
2
2
2
2
2
2
2
2
2
2
2
2
2
2
2
2
2
2
2
2
2
2
2
2
2
2
2
2
2
2
2
2
2
2
2
2
2
2
2
2
2
2
2
2
2
2
2
2
2
2
2
2
2
2
2
2
2
2
2
2
2
2
2
2
2
2
2
2
2
2
2
2
2
2
2
2
2
2
2
2
2
2
2
2
2
2
2
2
2
2
CELL_DATA 200
SCALARS matB float 1
LOOKUP_TABLE default
100
101
102
103
104
105
106
107
108
109
101
102
103
104
105
106
107
108
109
110
102
103
104
105
106
107
108
109
110
111
103
104
105
106
107
108
109
110
111
112
104
105
106
107
108
109
110
111
112
113
105
106
107
108
109
110
111
112
113
114
106
107
108
109
110
111
112
113
114
115
107
108
109
110
111
112
113
114
115
116
108
109
110
111
112
113
114
115
116
117
109
110
111
112
113
114
115
116
117
118
101
102
103
104
105
106
107
108
109
110
102
103
104
105
106
107
108
109
110
111
103
104
105
106
107
108
109
110
111
112
104
105
106
107
108
109
110
111
112
113
105
106
107
108
109
110
111
112
113
114
106
107
108
109
110
111
112
113
114
115
107
108
109
110
111
112
113
114
115
116
108
109
110
111
112
113
114
115
116
117
109
110
111
112
113
114
115
116
117
118
110
111
112
113
114
115
116
117
118
119
