# vtk DataFile Version 3.0
append attributes test: structured grid 11x11x3
ASCII
DATASET STRUCTURED_GRID
DIMENSIONS 11 11 3
POINTS 363 float
-1 -1 0
-0.8 -1 0
-0.6 -1 0
-0.4 -1 0
-0.2 -1 0
0 -1 0
0.2 -1 0
0.4 -1 0
0.6 -1 0
0.8 -1 0
1 -1 0
-1 -0.8 0
-0.8 -0.8 0
-0.6 -0.8 0
-0.4 -0.8 0
-0.2 -0.8 0
0 -0.8 0
0.2 -0.8 0
0.4 -0.8 0
0.6 -0.8 0
0.8 -0.8 0
1 -0.8 0
-1 -0.6 0
-0.8 -0.6 0
-0.6 -0.6 0
-0.4 -0.6 0
-0.2 -0.6 0
0 -0.6 0
0.2 -0.6 0
0.4 -0.6 0
0.6 -0.6 0
0.8 -0.6 0
1 -0.6 0
-1 -0.4 0
-0.8 -0.4 0
-0.6 -0.4 0
-0.4 -0.4 0
-0.2 -0.4 0
0 -0.4 0
0.2 -0.4 0
0.4 -0.4 0
0.6 -0.4 0
0.8 -0.4 0
1 -0.4 0
-1 -0.2 0
-0.8 -0.2 0
-0.6 -0.2 0
-0.4 -0.2 0
-0.2 -0.2 0
0 -0.2 0
0.2 -0.2 0
0.4 -0.2 0
0.6 -0.2 0
0.8 -0.2 0
1 -0.2 0
-1 0 0
-0.8 0 0
-0.6 0 0
-0.4 0 0
-0.2 0 0
0 0 0
0.2 0 0
0.4 0 0
0.6 0 0
0.8 0 0
1 0 0
-1 0.2 0
-0.8 0.2 0
-0.6 0.2 0
-0.4 0.2 0
-0.2 0.2 0
0 0.2 0
0.2 0.2 0
0.4 0.2 0
0.6 0.2 0
0.8 0.2 0
1 0.2 0
-1 0.4 0
-0.8 0.4 0
-0.6 0.4 0
-0.4 0.4 0
-0.2 0.4 0
0 0.4 0
0.2 0.4 0
0.4 0.4 0
0.6 0.4 0
0.8 0.4 0
1 0.4 0
-1 0.6 0
-0.8 0.6 0
-0.6 0.6 0
-0.4 0.6 0
-0.2 0.6 0
0 0.6 0
0.2 0.6 0
0.4 0.6 0
0.6 0.6 0
0.8 0.6 0
1 0.6 0
-1 0.8 0
-0.8 0.8 0
-0.6 0.8 0
-0.4 0.8 0
-0.2 0.8 0
0 0.8 0
0.2 0.8 0
0.4 0.8 0
0.6 0.8 0
0.8 0.8 0
1 0.8 0
-1 1 0
-0.8 1 0
-0.6 1 0
-0.4 1 0
-0.2 1 0
0 1 0
0.2 1 0
0.4 1 0
0.6 1 0
0.8 1 0
1 1 0
-1 -1 0.5
-0.8 -1 0.5
-0.6 -1 0.5
-0.4 -1 0.5
-0.2 -1 0.5
0 -1 0.5
0.2 -1 0.5
0.4 -1 0.5
0.6 -1 0.5
0.8 -1 0.5
1 -1 0.5
-1 -0.8 0.5
-0.8 -0.8 0.5
-0.6 -0.8 0.5
-0.4 -0.8 0.5
-0.2 -0.8 0.5
0 -0.8 0.5
0.2 -0.8 0.5
0.4 -0.8 0.5
0.6 -0.8 0.5
0.8 -0.8 0.5
1 -0.8 0.5
-1 -0.6 0.5
-0.8 -0.6 0.5
-0.6 -0.6 0.5
-0.4 -0.6 0.5
-0.2 -0.6 0.5
0 -0.6 0.5
0.2 -0.6 0.5
0.4 -0.6 0.5
0.6 -0.6 0.5
0.8 -0.6 0.5
1 -0.6 0.5
-1 -0.4 0.5
-0.8 -0.4 0.5
-0.6 -0.4 0.5
-0.4 -0.4 0.5
-0.2 -0.4 0.5
0 -0.4 0.5
0.2 -0.4 0.5
0.4 -0.4 0.5
0.6 -0.4 0.5
0.8 -0.4 0.5
1 -0.4 0.5
-1 -0.2 0.5
-0.8 -0.2 0.5
-0.6 -0.2 0.5
-0.4 -0.2 0.5
-0.2 -0.2 0.5
0 -0.2 0.5
0.2 -0.2 0.5
0.4 -0.2 0.5
0.6 -0.2 0.5
0.8 -0.2 0.5
1 -0.2 0.5
-1 0 0.5
-0.8 0 0.5
-0.6 0 0.5
-0.4 0 0.5
-0.2 0 0.5
0 0 0.5
0.2 0 0.5
0.4 0 0.5
0.6 0 0.5
0.8 0 0.5
1 0 0.5
-1 0.2 0.5
-0.8 0.2 0.5
-0.6 0.2 0.5
-0.4 0.2 0.5
-0.2 0.2 0.5
0 0.2 0.5
0.2 0.2 0.5
0.4 0.2 0.5
0.6 0.2 0.5
0.8 0.2 0.5
1 0.2 0.5
-1 0.4 0.5
-0.8 0.4 0.5
-0.6 0.4 0.5
-0.4 0.4 0.5
-0.2 0.4 0.5
0 0.4 0.5
0.2 0.4 0.5
0.4 0.4 0.5
0.6 0.4 0.5
0.8 0.4 0.5
1 0.4 0.5
-1 0.6 0.5
-0.8 0.6 0.5
-0.6 0.6 0.5
-0.4 0.6 0.5
-0.2 0.6 0.5
0 0.6 0.5
0.2 0.6 0.5
0.4 0.6 0.5
0.6 0.6 0.5
0.8 0.6 0.5
1 0.6 0.5
-1 0.8 0.5
-0.8 0.8 0.5
-0.6 0.8 0.5
-0.4 0.8 0.5
-0.2 0.8 0.5
0 0.8 0.5
0.2 0.8 0.5
0.4 0.8 0.5
0.6 0.8 0.5
0.8 0.8 0.5
1 0.8 0.5
-1 1 0.5
-0.8 1 0.5
-0.6 1 0.5
-0.4 1 0.5
-0.2 1 0.5
0 1 0.5
0.2 1 0.5
0.4 1 0.5
0.6 1 0.5
0.8 1 0.5
1 1 0.5
-1 -1 1
-0.8 -1 1
-0.6 -1 1
-0.4 -1 1
-0.2 -1 1
0 -1 1
0.2 -1 1
0.4 -1 1
0.6 -1 1
0.8 -1 1
1 -1 1
-1 -0.8 1
-0.8 -0.8 1
-0.6 -0.8 1
-0.4 -0.8 1
-0.2 -0.8 1
0 -0.8 1
0.2 -0.8 1
0.4 -0.8 1
0.6 -0.8 1
0.8 -0.8 1
1 -0.8 1
-1 -0.6 1
-0.8 -0.6 1
-0.6 -0.6 1
-0.4 -0.6 1
-0.2 -0.6 1
0 -0.6 1
0.2 -0.6 1
0.4 -0.6 1
0.6 -0.6 1
0.8 -0.6 1
1 -0.6 1
-1 -0.4 1
-0.8 -0.4 1
-0.6 -0.4 1
-0.4 -0.4 1
-0.2 -0.4 1
0 -0.4 1
0.2 -0.4 1
0.4 -0.4 1
0.6 -0.4 1
0.8 -0.4 1
1 -0.4 1
-1 -0.2 1
-0.8 -0.2 1
-0.6 -0.2 1
-0.4 -0.2 1
-0.2 -0.2 1
0 -0.2 1
0.2 -0.2 1
0.4 -0.2 1
0.6 -0.2 1
0.8 -0.2 1
1 -0.2 1
-1 0 1
-0.8 0 1
-0.6 0 1
-0.4 0 1
-0.2 0 1
0 0 1
0.2 0 1
0.4 0 1
0.6 0 1
0.8 0 1
1 0 1
-1 0.2 1
-0.8 0.2 1
-0.6 0.2 1
-0.4 0.2 1
-0.2 0.2 1
0 0.2 1
0.2 0.2 1
0.4 0.2 1
0.6 0.2 1
0.8 0.2 1
1 0.2 1
-1 0.4 1
-0.8 0.4 1
-0.6 0.4 1
-0.4 0.4 1
-0.2 0.4 1
0 0.4 1
0.2 0.4 1
0.4 0.4 1
0.6 0.4 1
0.8 0.4 1
1 0.4 1
-1 0.6 1
-0.8 0.6 1
-0.6 0.6 1
-0.4 0.6 1
-0.2 0.6 1
0 0.6 1
0.2 0.6 1
0.4 0.6 1
0.6 0.6 1
0.8 0.6 1
1 0.6 1
-1 0.8 1
-0.8 0.8 1
-0.6 0.8 1
-0.4 0.8 1
-0.2 0.8 1
0 0.8 1
0.2 0.8 1
0.4 0.8 1
0.6 0.8 1
0.8 0.8 1
1 0.8 1
-1 1 1
-0.8 1 1
-0.6 1 1
-0.4 1 1
-0.2 1 1
0 1 1
0.2 1 1
0.4 1 1
0.6 1 1
0.8 1 1
1 1 1
POINT_DATA 363
SCALARS pressureA float 1
LOOKUP_TABLE default
-2
-1.8
-1.6
-1.4
-1.2
-1
-0.8
-0.6
-0.4
-0.2
0
-1.8
-1.6
-1.4
-1.2
-1
-0.8
-0.6
-0.4
-0.2
0
0.2
-1.6
-1.4
-1.2
-1
-0.8
-0.6
-0.4
-0.2
0
0.2
0.4
-1.4
-1.2
-1
-0.8
-0.6
-0.4
-0.2
0
0.2
0.4
0.6
-1.2
-1
-0.8
-0.6
-0.4
-0.2
0
0.2
0.4
0.6
0.8
-1
-0.8
-0.6
-0.4
-0.2
0
0.2
0.4
0.6
0.8
1
-0.8
-0.6
-0.4
-0.2
0
0.2
0.4
0.6
0.8
1
1.2
-0.6
-0.4
-0.2
0
0.2
0.4
0.6
0.8
1
1.2
1.4
-0.4
-0.2
0
0.2
0.4
0.6
0.8
1
1.2
1.4
1.6
-0.2
0
0.2
0.4
0.6
0.8
1
1.2
1.4
1.6
1.8
0
0.2
0.4
0.6
0.8
1
1.2
1.4
1.6
1.8
2
-2
-1.8
-1.6
-1.4
-1.2
-1
-0.8
-0.6
-0.4
-0.2
0
-1.8
-1.6
-1.4
-1.2
-1
-0.8
-0.6
-0.4
-0.2
0
0.2
-1.6
-1.4
-1.2
-1
-0.8
-0.6
-0.4
-0.2
0
0.2
0.4
-1.4
-1.2
-1
-0.8
-0.6
-0.4
-0.2
0
0.2
0.4
0.6
-1.2
-1
-0.8
-0.6
-0.4
-0.2
0
0.2
0.4
0.6
0.8
-1
-0.8
-0.6
-0.4
-0.2
0
0.2
0.4
0.6
0.8
1
-0.8
-0.6
-0.4
-0.2
0
0.2
0.4
0.6
0.8
1
1.2
-0.6
-0.4
-0.2
0
0.2
0.4
0.6
0.8
1
1.2
1.4
-0.4
-0.2
0
0.2
0.4
0.6
0.8
1
1.2
1.4
1.6
-0.2
0
0.2
0.4
0.6
0.8
1
1.2
1.4
1.6
1.8
0
0.2
0.4
0.6
0.8
1
1.2
1.4
1.6
1.8
2
-2
-1.8
-1.6
-1.4
-1.2
-1
-0.8
-0.6
-0.4
-0.2
0
-1.8
-1.6
-1.4
-1.2
-1
-0.8
-0.6
-0.4
-0.2
0
0.2
-1.6
-1.4
-1.2
-1
-0.8
-0.6
-0.4
-0.2
0
0.2
0.4
-1.4
-1.2
-1
-0.8
-0.6
-0.4
-0.2
0
0.2
0.4
0.6
-1.2
-1
-0.8
-0.6
-0.4
-0.2
0
0.2
0.4
0.6
0.8
-1
-0.8
-0.6
-0.4
-0.2
0
0.2
0.4
0.6
0.8
1
-0.8
-0.6
-0.4
-0.2
0
0.2
0.4
0.6
0.8
1
1.2
-0.6
-0.4
-0.2
0
0.2
0.4
0.6
0.8
1
1.2
1.4
-0.4
-0.2
0
0.2
0.4
0.6
0.8
1
1.2
1.4
1.6
-0.2
0
0.2
0.4
0.6
0.8
1
1.2
1.4
1.6
1.8
0
0.2
0.4
0.6
0.8
1
1.2
1.4
1.6
1.8
2
SCALARS shared float 1
LOOKUP_TABLE default
1
1
1
1
1
1
1
1
1
1
1
1
1
1
1
1
1
1
1
1
1
1
1
1
1
1
1
1
1
1
1
1
1
1
1
1
1
1
1
1
1
1
1
1
1
1
1
1
1
1
1
1
1
1
1
1
1
1
1
1
1
1
1
1
1
1
1
1
1
1
1
1
1
1
1
1
1
1
1
1
1
1
1
1
1
1
1
1
1
1
1
1
1
1
1
1
1
1
1
1
1
1
1
1
1
1
1
1
1
1
1
1
1
1
1
1
1
1
1
1
1
1
1
1
1
1
1
1
1
1
1
1
1
1
1
1
1
1
1
1
1
1
1
1
1
1
1
1
1
1
1
1
1
1
1
1
1
1
1
1
1
1
1
1
1
1
1
1
1
1
1
1
1
1
1
1
1
1
1
1
1
1
1
1
1
1
1
1
1
1
1
1
1
1
1
1
1
1
1
1
1
1
1
1
1
1
1
1
1
1
1
1
1
1
1
1
1
1
1
1
1
1
1
1
1
1
1
1
1
1
1
1
1
1
1
1
1
1
1
1
1
1
1
1
1
1
1
1
1
1
1
1
1
1
1
1
1
1
1
1
1
1
1
1
1
1
1
1
1
1
1
1
1
1
1
1
1
1
1
1
1
1
1
1
1
1
1
1
1
1
1
1
1
1
1
1
1
1
1
1
1
1
1
1
1
1
1
1
1
1
1
1
1
1
1
1
1
1
1
1
1
1
1
1
1
1
1
1
1
1
1
1
1
1
1
1
1
1
1
1
1
1
1
1
1
1
1
1
1
1
1
1
1
1
1
1
1
1
1
1
1
1
1
CELL_DATA 200
SCALARS matA float 1
LOOKUP_TABLE default
0
1
2
3
4
5
6
7
8
9
1
2
3
4
5
6
7
8
9
10
2
3
4
5
6
7
8
9
10
11
3
4
5
6
7
8
9
10
11
12
4
5
6
7
8
9
10
11
12
13
5
6
7
8
9
10
11
12
13
14
6
7
8
9
10
11
12
13
14
15
7
8
9
10
11
12
13
14
15
16
8
9
10
11
12
13
14
15
16
17
9
10
11
12
13
14
15
16
17
18
1
2
3
4
5
6
7
8
9
10
2
3
4
5
6
7
8
9
10
11
3
4
5
6
7
8
9
10
11
12
4
5
6
7
8
9
10
11
12
13
5
6
7
8
9
10
11
12
13
14
6
7
8
9
10
11
12
13
14
15
7
8
9
10
11
12
13
14
15
16
8
9
10
11
12
13
14
15
16
17
9
10
11
12
13
14
15
16
17
18
10
11
12
13
14
15
16
17
18
19
